<svg xmlns="http://www.w3.org/2000/svg" width="128" height="128" viewBox="0 0 128 128">
  <!-- Background - Sky -->
  <rect width="128" height="128" fill="#87CEEB"/>

  <!-- Water -->
  <ellipse cx="64" cy="110" rx="55" ry="20" fill="#4169E1" opacity="0.5"/>

  <!-- Lily Pad -->
  <ellipse cx="64" cy="95" rx="40" ry="15" fill="#228B22"/>
  <ellipse cx="64" cy="93" rx="30" ry="10" fill="#32CD32" opacity="0.5"/>

  <!-- Frog Body -->
  <ellipse cx="64" cy="65" rx="28" ry="22" fill="#228B22"/>

  <!-- Frog Belly -->
  <ellipse cx="64" cy="70" rx="18" ry="14" fill="#90EE90"/>

  <!-- Left Eye -->
  <circle cx="50" cy="48" r="12" fill="white"/>
  <circle cx="52" cy="48" r="6" fill="black"/>

  <!-- Right Eye -->
  <circle cx="78" cy="48" r="12" fill="white"/>
  <circle cx="76" cy="48" r="6" fill="black"/>

  <!-- Mouth - smile -->
  <path d="M 48 75 Q 64 85 80 75" stroke="#006400" stroke-width="3" fill="none"/>

  <!-- Left Leg -->
  <ellipse cx="35" cy="85" rx="12" ry="8" fill="#228B22" transform="rotate(-20 35 85)"/>

  <!-- Right Leg -->
  <ellipse cx="93" cy="85" rx="12" ry="8" fill="#228B22" transform="rotate(20 93 85)"/>

  <!-- Jump arrow -->
  <path d="M 64 25 L 54 35 L 60 35 L 60 45 L 68 45 L 68 35 L 74 35 Z" fill="#FFD700" stroke="#FFA500" stroke-width="1"/>
</svg>
